PathFileType	4	(X/Y/Z)	s09c0401.trc
DataRate	CameraRate	NumFrames	NumMarkers	Units	OrigDataRate	OrigDataStartFrame	OrigNumFrames
200	200	4	50	mm	200	1000	2000
Frame#	Time	racr			lacr			c7			jug			rlel			rdr			llel			ldr			s2			lic			ric			lasi			rasi			rpsi			lpsi			rgt			lgt			rth1			rth2			rth3			rth4			rlfc			rmfc			rsh1			rsh2			rsh3			rsh4			rlmal			rmmal			rcal			rtoe			rmt5			lth1			lth2			lth4			lth3			llfc			lmfc			llmal			lmmal			lcal			lmt5			lsh1			lsh2			lsh3			lsh4			ltoe			SBIKE			LBIKE			RBIKE			
		X1	Y1	Z1	X2	Y2	Z2	X3	Y3	Z3	X4	Y4	Z4	X5	Y5	Z5	X6	Y6	Z6	X7	Y7	Z7	X8	Y8	Z8	X9	Y9	Z9	X10	Y10	Z10	X11	Y11	Z11	X12	Y12	Z12	X13	Y13	Z13	X14	Y14	Z14	X15	Y15	Z15	X16	Y16	Z16	X17	Y17	Z17	X18	Y18	Z18	X19	Y19	Z19	X20	Y20	Z20	X21	Y21	Z21	X22	Y22	Z22	X23	Y23	Z23	X24	Y24	Z24	X25	Y25	Z25	X26	Y26	Z26	X27	Y27	Z27	X28	Y28	Z28	X29	Y29	Z29	X30	Y30	Z30	X31	Y31	Z31	X32	Y32	Z32	X33	Y33	Z33	X34	Y34	Z34	X35	Y35	Z35	X36	Y36	Z36	X37	Y37	Z37	X38	Y38	Z38	X39	Y39	Z39	X40	Y40	Z40	X41	Y41	Z41	X42	Y42	Z42	X43	Y43	Z43	X44	Y44	Z44	X45	Y45	Z45	X46	Y46	Z46	X47	Y47	Z47	X48	Y48	Z48	X49	Y49	Z49	X50	Y50	Z50	
1000	5.0000	653.263225	1294.970601	-1.613058	694.753153	1278.368392	-367.081971	652.411535	1382.373934	-185.565381	663.208055	1240.741831	-186.226879	614.365797	1061.532709	104.253359	650.450766	871.225931	-52.106952	588.255025	1086.427365	-541.354735	627.546294	865.197348	-434.649871	192.526234	1155.440908	-247.102476	344.133222	1159.009551	-378.294732	319.491825	1138.539318	-82.554506	378.054577	1099.182165	-351.983652	364.692251	1082.822333	-104.740163	219.956635	1181.689086	-182.075602	225.648114	1196.718465	-290.380178	279.391781	991.723860	-57.658783	313.206210	1030.687883	-432.216180	334.859836	868.276945	-57.569547	379.802626	794.034160	-67.143817	379.501033	705.615563	-80.306827	410.587308	803.322517	-83.790850	402.037465	614.974090	-109.631783	388.944501	594.230510	-203.846227	355.456455	522.004769	-77.132324	360.088348	432.945719	-89.797867	319.830134	355.317430	-90.135434	386.563825	430.875708	-119.842857	291.412084	256.866805	-89.130159	295.319752	267.231050	-164.698332	211.595694	233.451718	-124.191785	473.156369	179.018301	-125.542968	388.031066	174.712478	-61.612231	412.401598	934.720619	-435.582939	486.600628	894.559263	-423.359691	509.443497	918.107535	-403.421374	534.343432	817.876166	-421.666201	562.575092	728.062538	-403.980873	564.701210	709.518621	-304.094038	223.635219	588.216329	-407.368368	244.129396	579.323764	-335.226398	152.326104	617.456777	-365.617138	221.786228	460.014418	-428.969976	474.072066	686.854464	-423.957857	404.318724	636.054420	-412.458322	315.955410	625.464763	-412.131268	416.201265	613.584874	-382.416778	291.187623	397.419604	-361.054814	-64.231190	853.364448	-239.688312	21.205832	84.126090	-442.042305	21.205094	83.924508	-43.873835	
1001	5.0050	653.327258	1295.957832	-3.861280	693.743399	1279.076035	-370.004055	652.115187	1383.092082	-188.224083	663.434445	1241.887811	-188.703920	614.223948	1062.461790	102.241743	650.495412	870.719270	-52.663323	588.715905	1086.149573	-543.672078	627.516636	865.626652	-435.178687	192.367594	1154.414565	-245.335720	342.665081	1158.240469	-377.990868	320.893303	1137.154407	-82.242407	377.291855	1098.605397	-351.911415	365.665651	1081.505588	-104.790694	220.512659	1180.581466	-180.687152	224.979121	1195.615303	-288.957842	279.373296	990.495750	-57.442623	312.529728	1030.290195	-432.401930	332.060683	866.258152	-57.014117	375.973974	791.245181	-66.449889	374.277136	703.026897	-79.745429	407.019194	800.267385	-82.923089	395.882396	612.376008	-109.306428	383.056055	591.526421	-203.547165	349.407399	519.440701	-77.024606	354.661165	430.138565	-89.486698	314.342305	352.622278	-90.001429	380.654756	428.248283	-119.850521	285.975539	254.265152	-89.088535	292.956823	263.609680	-163.886970	208.843061	229.632018	-125.717303	467.293992	173.815307	-125.359771	381.963046	170.716962	-61.523811	413.868979	935.903594	-435.295021	488.274851	897.083127	-423.327633	510.903970	920.558081	-402.487832	537.446910	820.846445	-420.884940	566.742549	731.947615	-403.295615	568.692113	713.322632	-303.285237	228.007392	591.255994	-407.599720	248.367439	583.594727	-335.211456	155.658681	620.534426	-365.772905	227.962851	464.362938	-429.029826	478.439889	691.093022	-423.258511	408.669973	640.258621	-412.015487	320.366466	629.506757	-411.903199	420.541763	617.494025	-382.074777	298.200427	403.029816	-361.210559	-64.294711	853.352403	-239.764422	21.191227	84.111397	-442.057823	21.190422	83.936510	-43.889945	
1002	5.0100	653.447820	1296.993378	-6.122067	692.836442	1279.687784	-373.093020	652.980553	1380.811249	-192.484295	663.564390	1242.955898	-191.317444	614.080008	1063.475240	100.174859	650.134541	869.942210	-52.772265	589.207787	1085.837593	-546.058850	627.294374	866.130519	-436.108926	192.375042	1153.854729	-243.658099	341.329914	1157.682233	-377.735539	322.260959	1136.194700	-82.106854	376.579977	1098.216594	-351.916272	366.622336	1080.432527	-104.889137	221.214107	1179.960277	-179.308531	224.658061	1195.059827	-287.688595	279.150916	989.559497	-57.331171	311.793203	1029.998800	-432.084205	329.289756	864.695864	-56.381604	371.620402	788.867601	-65.549087	368.993159	700.733739	-79.196424	403.356371	797.319688	-82.113493	389.599638	610.019283	-108.902781	377.017734	589.244786	-203.394544	343.257779	517.190556	-76.906795	348.867818	427.924044	-89.234004	308.694885	350.214205	-89.850707	374.924516	426.058956	-119.556081	280.400862	251.952365	-89.111798	288.002958	261.065072	-163.752712	203.225627	228.581436	-125.740853	461.171955	168.994661	-125.269318	375.745201	166.954941	-61.530358	414.893318	937.272503	-434.573884	490.237678	899.162297	-421.504979	512.072387	923.164734	-401.662549	540.046712	823.855624	-420.385293	570.721704	735.977627	-402.525608	572.483352	717.443269	-302.229176	232.256184	594.012156	-407.795699	252.426141	587.229725	-335.282684	158.947572	623.288934	-366.264679	234.132193	468.334802	-429.159501	482.519733	695.308529	-422.613710	412.865136	644.134610	-411.586415	324.532159	633.295885	-411.673512	424.701393	621.327775	-381.744837	305.926887	408.600148	-361.817184	-64.331625	853.335974	-239.834856	21.185444	84.078020	-442.060878	21.169845	83.935919	-43.891826	
1003	5.0150	653.583288	1298.078555	-8.475461	692.060609	1280.201970	-376.132378	653.904341	1381.001568	-195.271516	663.904631	1243.723516	-193.894419	613.850336	1064.461016	97.931999	650.006275	869.467547	-53.255683	589.740021	1085.495931	-548.455056	627.315560	866.557455	-436.566316	192.461471	1153.595774	-242.057715	340.075277	1157.355282	-377.435872	323.683587	1135.558250	-81.834268	375.691905	1098.029539	-352.198874	367.555012	1079.633595	-105.074213	221.926270	1179.524783	-177.916289	224.549858	1194.847207	-285.596117	278.793444	988.846430	-57.230357	311.663194	1030.054546	-431.780674	326.632369	863.332167	-55.693726	367.785908	786.751806	-64.840521	363.643566	698.793187	-78.644686	399.730567	794.676151	-81.194505	383.443204	607.990439	-108.402090	371.123808	587.154285	-203.224661	337.083457	515.384540	-76.736959	343.022682	426.096786	-88.869576	303.040391	348.253178	-89.671403	369.586152	424.431922	-118.965662	274.865915	250.021533	-89.241781	283.094620	258.868947	-163.649040	197.929047	227.751790	-125.884780	454.876008	164.204479	-125.264034	369.458314	163.590995	-61.486460	415.650635	938.853829	-433.487488	491.527434	901.439161	-420.233542	513.031351	925.846067	-400.786888	542.149027	826.969031	-419.896167	574.451324	740.088278	-401.651709	576.118996	721.560706	-301.154194	236.354717	596.601113	-407.910339	256.404113	590.565545	-335.247521	161.880987	625.378830	-366.334322	240.516970	472.104570	-429.471908	486.356493	699.292633	-421.880751	416.818019	647.966588	-411.192890	328.562597	636.781134	-411.403264	428.479029	625.479228	-381.146824	313.312271	413.702907	-361.700308	-64.389641	853.320537	-239.897359	21.173773	84.051878	-442.063097	21.186295	83.890747	-43.882893	
